<?xml version="1.0" encoding="UTF-8"?>
<!DOCTYPE svg PUBLIC "-//W3C//DTD SVG 1.1//EN" "http://www.w3.org/Graphics/SVG/1.1/DTD/svg11.dtd">
<svg xmlns="http://www.w3.org/2000/svg" version="1.1" width="500px" height="500px" style="shape-rendering:geometricPrecision; text-rendering:geometricPrecision; image-rendering:optimizeQuality; fill-rule:evenodd; clip-rule:evenodd" xmlns:xlink="http://www.w3.org/1999/xlink">
<g><path style="opacity:1" fill="#fefefe" d="M -0.5,-0.5 C 166.167,-0.5 332.833,-0.5 499.5,-0.5C 499.5,166.167 499.5,332.833 499.5,499.5C 332.833,499.5 166.167,499.5 -0.5,499.5C -0.5,332.833 -0.5,166.167 -0.5,-0.5 Z"/></g>
<g><path style="opacity:1" fill="#fce5e9" d="M 231.5,76.5 C 292.44,72.298 342.94,92.9646 383,138.5C 427.94,197.508 434.94,260.841 404,328.5C 365.681,395.92 307.514,427.086 229.5,422C 157.179,410.444 108.679,370.277 84,301.5C 64.6025,228.382 82.7692,166.548 138.5,116C 165.635,93.7866 196.635,80.62 231.5,76.5 Z"/></g>
<g><path style="opacity:1" fill="#d25376" d="M 358.5,284.5 C 358.167,284.5 357.833,284.5 357.5,284.5C 356.735,281.904 356.401,279.237 356.5,276.5C 369.585,276.758 382.585,275.925 395.5,274C 397.885,273.945 399.219,272.778 399.5,270.5C 398.441,267.932 396.774,265.765 394.5,264C 385.316,257.905 375.649,252.572 365.5,248C 335.5,235.333 305.5,222.667 275.5,210C 267.906,206.287 260.406,202.453 253,198.5C 240.676,204.412 228.176,209.912 215.5,215C 177.734,228.143 141.067,243.809 105.5,262C 102.685,264.069 100.352,266.569 98.5,269.5C 99.3128,270.814 100.313,271.981 101.5,273C 106.678,274.798 112.011,275.798 117.5,276C 125.493,276.5 133.493,276.666 141.5,276.5C 143.357,266.648 149.024,260.315 158.5,257.5C 160.883,257.361 162.883,258.028 164.5,259.5C 161.824,258.992 159.157,258.825 156.5,259C 151.649,263.856 148.483,269.689 147,276.5C 145.064,285.855 145.064,295.189 147,304.5C 150.86,314.043 156.693,315.71 164.5,309.5C 162.943,313.87 159.776,315.87 155,315.5C 146.339,313.833 141.339,308.5 140,299.5C 139.501,293.843 139.334,288.176 139.5,282.5C 125.861,283.443 112.528,281.943 99.5,278C 94.2728,275.798 92.1062,271.965 93,266.5C 101.525,257.818 111.358,250.985 122.5,246C 164.086,228.471 205.752,211.138 247.5,194C 248,193.5 248.5,193 249,192.5C 249.5,185.842 249.666,179.175 249.5,172.5C 234.613,169.085 228.447,159.752 231,144.5C 238.15,128.67 249.65,124.503 265.5,132C 272.817,137.318 275.817,144.318 274.5,153C 272.741,153.798 271.074,153.631 269.5,152.5C 266.613,136.059 257.613,131.225 242.5,138C 233.323,149.243 234.99,158.576 247.5,166C 250.095,166.226 252.595,166.726 255,167.5C 255.182,176.078 255.682,184.578 256.5,193C 265.554,198.194 274.888,202.861 284.5,207C 312.33,218.277 339.996,229.943 367.5,242C 421.845,268.45 418.845,282.617 358.5,284.5 Z"/></g>
<g><path style="opacity:1" fill="#d45779" d="M 285.5,303.5 C 285.167,303.5 284.833,303.5 284.5,303.5C 284.718,297.002 283.884,290.669 282,284.5C 281.333,277.5 281.333,270.5 282,263.5C 283.616,258.221 286.449,253.721 290.5,250C 301.095,247.051 308.262,250.884 312,261.5C 313.286,264.405 314.286,267.405 315,270.5C 315.667,278.167 315.667,285.833 315,293.5C 311.243,307.131 303.076,311.131 290.5,305.5C 288.808,303.641 287.308,301.641 286,299.5C 285.51,300.793 285.343,302.127 285.5,303.5 Z"/></g>
<g><path style="opacity:1" fill="#fce4e8" d="M 295.5,250.5 C 301.381,251.362 305.881,254.362 309,259.5C 314.742,271.815 315.742,284.481 312,297.5C 306.346,306.641 299.68,307.641 292,300.5C 285.693,285.684 285.027,270.684 290,255.5C 291.73,253.598 293.563,251.931 295.5,250.5 Z"/></g>
<g><path style="opacity:1" fill="#d45879" d="M 196.5,251.5 C 196.5,252.167 196.5,252.833 196.5,253.5C 193.303,256.189 190.803,259.523 189,263.5C 184.514,274.421 182.181,285.755 182,297.5C 184.731,295.255 187.564,293.255 190.5,291.5C 187.834,294.999 184.667,297.999 181,300.5C 180.333,305.833 180.333,311.167 181,316.5C 181.377,317.942 182.21,318.942 183.5,319.5C 185.167,320.167 186.833,320.833 188.5,321.5C 180.801,322.648 176.301,319.315 175,311.5C 173.848,292.633 177.848,274.966 187,258.5C 189.501,255.152 192.668,252.818 196.5,251.5 Z"/></g>
<g><path style="opacity:1" fill="#fce3e7" d="M 190.5,291.5 C 187.564,293.255 184.731,295.255 182,297.5C 182.181,285.755 184.514,274.421 189,263.5C 190.803,259.523 193.303,256.189 196.5,253.5C 200.188,251.753 203.355,252.42 206,255.5C 208.359,262.917 207.359,269.917 203,276.5C 198.622,281.373 194.455,286.373 190.5,291.5 Z"/></g>
<g><path style="opacity:1" fill="#fadde3" d="M 260.5,258.5 C 261.693,258.97 262.36,259.97 262.5,261.5C 261.661,266.335 258.994,269.668 254.5,271.5C 253.504,271.414 252.671,271.748 252,272.5C 252.037,266.087 254.87,261.42 260.5,258.5 Z"/></g>
<g><path style="opacity:1" fill="#dc7490" d="M 164.5,259.5 C 167.091,260.254 168.924,261.921 170,264.5C 171.318,267.406 171.652,270.406 171,273.5C 170.272,268.144 168.106,263.478 164.5,259.5 Z"/></g>
<g><path style="opacity:1" fill="#fbe0e5" d="M 257.5,289.5 C 255.164,291.004 253.331,293.004 252,295.5C 250.545,288.556 250.212,281.556 251,274.5C 252.47,273.733 253.97,273.067 255.5,272.5C 261.501,269.845 264.501,265.178 264.5,258.5C 265.748,259.04 266.915,259.707 268,260.5C 268.667,263.833 268.667,267.167 268,270.5C 264.983,277.209 261.483,283.543 257.5,289.5 Z"/></g>
<g><path style="opacity:1" fill="#d45a7b" d="M 263.5,256.5 C 262.5,257.167 261.5,257.833 260.5,258.5C 254.87,261.42 252.037,266.087 252,272.5C 252.671,271.748 253.504,271.414 254.5,271.5C 255.167,271.5 255.5,271.833 255.5,272.5C 253.97,273.067 252.47,273.733 251,274.5C 250.212,281.556 250.545,288.556 252,295.5C 253.331,293.004 255.164,291.004 257.5,289.5C 255.673,292.179 254.006,295.012 252.5,298C 253.806,303.779 256.306,308.945 260,313.5C 262.005,306.651 264.505,299.984 267.5,293.5C 270.248,292.356 272.081,293.356 273,296.5C 274.205,304.612 275.872,312.612 278,320.5C 279.579,321.8 280.745,321.466 281.5,319.5C 282.338,319.842 282.672,320.508 282.5,321.5C 282.509,324.136 281.175,325.469 278.5,325.5C 276.626,325.61 275.126,324.944 274,323.5C 270.369,318.047 268.536,312.047 268.5,305.5C 268.813,302.753 268.48,300.086 267.5,297.5C 266.893,297.624 266.56,297.957 266.5,298.5C 264.491,304.863 262.324,311.197 260,317.5C 259.439,318.022 258.772,318.355 258,318.5C 256.233,317.66 254.899,316.327 254,314.5C 251.633,310.147 249.3,305.813 247,301.5C 244.29,305.753 241.457,309.92 238.5,314C 233.182,318.125 229.015,317.291 226,311.5C 225.502,308.518 225.335,305.518 225.5,302.5C 224.167,302.5 222.833,302.5 221.5,302.5C 222.848,301.399 224.348,300.399 226,299.5C 226.199,291.344 227.365,283.344 229.5,275.5C 227.435,275.483 225.435,275.15 223.5,274.5C 225.833,273.833 228.167,273.167 230.5,272.5C 231.017,268.778 231.85,265.112 233,261.5C 235.8,259.882 237.3,260.715 237.5,264C 236.75,267.163 236.084,270.33 235.5,273.5C 239.182,273.665 242.848,273.499 246.5,273C 248.453,266.408 252.12,261.074 257.5,257C 259.473,256.505 261.473,256.338 263.5,256.5 Z"/></g>
<g><path style="opacity:1" fill="#dc728e" d="M 230.5,272.5 C 228.167,273.167 225.833,273.833 223.5,274.5C 218.043,272.921 212.709,273.255 207.5,275.5C 202.09,280.08 197.09,285.246 192.5,291C 191.906,291.464 191.239,291.631 190.5,291.5C 194.455,286.373 198.622,281.373 203,276.5C 207.359,269.917 208.359,262.917 206,255.5C 203.355,252.42 200.188,251.753 196.5,253.5C 196.5,252.833 196.5,252.167 196.5,251.5C 201.182,249.733 205.016,251.066 208,255.5C 210.4,262.135 209.567,268.302 205.5,274C 213.647,272.634 221.98,272.134 230.5,272.5 Z"/></g>
<g><path style="opacity:1" fill="#fce3e8" d="M 223.5,274.5 C 225.435,275.15 227.435,275.483 229.5,275.5C 227.365,283.344 226.199,291.344 226,299.5C 224.348,300.399 222.848,301.399 221.5,302.5C 220.5,302.5 219.5,302.5 218.5,302.5C 218.598,300.447 217.931,298.78 216.5,297.5C 214.641,293.074 211.308,291.574 206.5,293C 205.018,295.592 205.352,297.925 207.5,300C 205.536,301.451 204.203,303.284 203.5,305.5C 199.398,310.105 195.064,314.605 190.5,319C 188.19,319.497 185.857,319.663 183.5,319.5C 182.21,318.942 181.377,317.942 181,316.5C 180.333,311.167 180.333,305.833 181,300.5C 184.667,297.999 187.834,294.999 190.5,291.5C 191.239,291.631 191.906,291.464 192.5,291C 197.09,285.246 202.09,280.08 207.5,275.5C 212.709,273.255 218.043,272.921 223.5,274.5 Z"/></g>
<g><path style="opacity:1" fill="#d35577" d="M 354.5,298.5 C 355.338,298.842 355.672,299.508 355.5,300.5C 355.714,302.144 355.38,303.644 354.5,305C 351.743,305.782 349.243,305.282 347,303.5C 342.421,295.764 339.421,287.431 338,278.5C 337.536,279.094 337.369,279.761 337.5,280.5C 336.833,280.5 336.5,280.167 336.5,279.5C 336.426,275.299 338.259,273.965 342,275.5C 344.864,283.092 347.531,290.758 350,298.5C 351.093,300.349 352.426,302.016 354,303.5C 354.494,301.866 354.66,300.199 354.5,298.5 Z"/></g>
<g><path style="opacity:1" fill="#fce3e7" d="M 234.5,275.5 C 238.167,275.5 241.833,275.5 245.5,275.5C 245.71,283.851 245.877,292.184 246,300.5C 243.417,303.997 241.084,307.664 239,311.5C 237.054,313.994 234.721,314.661 232,313.5C 230.852,300.677 231.686,288.01 234.5,275.5 Z"/></g>
<g><path style="opacity:1" fill="#da6b89" d="M 263.5,256.5 C 269.565,258.292 271.732,262.292 270,268.5C 267.344,276.491 263.178,283.491 257.5,289.5C 261.483,283.543 264.983,277.209 268,270.5C 268.667,267.167 268.667,263.833 268,260.5C 266.915,259.707 265.748,259.04 264.5,258.5C 264.501,265.178 261.501,269.845 255.5,272.5C 255.5,271.833 255.167,271.5 254.5,271.5C 258.994,269.668 261.661,266.335 262.5,261.5C 262.36,259.97 261.693,258.97 260.5,258.5C 261.5,257.833 262.5,257.167 263.5,256.5 Z"/></g>
<g><path style="opacity:1" fill="#e07f98" d="M 336.5,279.5 C 336.5,280.167 336.833,280.5 337.5,280.5C 336.406,285.673 335.072,290.673 333.5,295.5C 332.508,295.672 331.842,295.338 331.5,294.5C 333.318,289.565 334.985,284.565 336.5,279.5 Z"/></g>
<g><path style="opacity:1" fill="#d35577" d="M 331.5,294.5 C 331.842,295.338 332.508,295.672 333.5,295.5C 334.069,301.798 332.236,302.798 328,298.5C 325.69,294.823 325.19,290.989 326.5,287C 327.5,286.333 328.5,286.333 329.5,287C 330.355,289.436 331.021,291.936 331.5,294.5 Z"/></g>
<g><path style="opacity:1" fill="#e08099" d="M 357.5,284.5 C 357.833,284.5 358.167,284.5 358.5,284.5C 357.236,289.907 356.236,295.24 355.5,300.5C 355.672,299.508 355.338,298.842 354.5,298.5C 354.498,293.5 355.498,288.833 357.5,284.5 Z"/></g>
<g><path style="opacity:1" fill="#dd7893" d="M 164.5,309.5 C 166.47,304.963 168.136,300.297 169.5,295.5C 170.023,298.509 169.523,301.509 168,304.5C 167.303,306.584 166.136,308.251 164.5,309.5 Z"/></g>
<g><path style="opacity:1" fill="#d4597b" d="M 216.5,297.5 C 217.931,298.78 218.598,300.447 218.5,302.5C 219.5,302.5 220.5,302.5 221.5,302.5C 220.791,303.404 219.791,303.737 218.5,303.5C 219.336,311.829 215.67,314.995 207.5,313C 206.139,311.416 205.472,309.582 205.5,307.5C 205.869,305.007 205.203,304.34 203.5,305.5C 204.203,303.284 205.536,301.451 207.5,300C 205.352,297.925 205.018,295.592 206.5,293C 211.308,291.574 214.641,293.074 216.5,297.5 Z"/></g>
<g><path style="opacity:1" fill="#fadbe1" d="M 216.5,297.5 C 218.115,302.597 216.448,303.764 211.5,301C 209.773,299.611 208.439,297.944 207.5,296C 207.667,294.5 208.5,293.667 210,293.5C 212.571,294.25 214.738,295.583 216.5,297.5 Z"/></g>
<g><path style="opacity:1" fill="#fbe0e5" d="M 210.5,302.5 C 212.764,303.219 215.097,303.552 217.5,303.5C 218.055,307.387 216.721,310.387 213.5,312.5C 211.282,309.648 210.282,306.315 210.5,302.5 Z"/></g>
<g><path style="opacity:1" fill="#eeb0bf" d="M 266.5,298.5 C 266.56,297.957 266.893,297.624 267.5,297.5C 268.48,300.086 268.813,302.753 268.5,305.5C 267.833,303.167 267.167,300.833 266.5,298.5 Z"/></g>
<g><path style="opacity:1" fill="#e08199" d="M 284.5,303.5 C 284.833,303.5 285.167,303.5 285.5,303.5C 285.305,309.767 284.305,315.767 282.5,321.5C 282.672,320.508 282.338,319.842 281.5,319.5C 282.65,314.071 283.65,308.737 284.5,303.5 Z"/></g>
<g><path style="opacity:1" fill="#dd7591" d="M 205.5,307.5 C 204.883,307.389 204.383,307.056 204,306.5C 199.626,312.375 194.459,317.375 188.5,321.5C 186.833,320.833 185.167,320.167 183.5,319.5C 185.857,319.663 188.19,319.497 190.5,319C 195.064,314.605 199.398,310.105 203.5,305.5C 205.203,304.34 205.869,305.007 205.5,307.5 Z"/></g>
</svg>
